# xmcd
#
# Track frame offsets:
#	150
#	20928
#	44594
#	58404
#	80256
#	99042
#	108779
#	130146
#	161452
#
# Disc length: 2885 seconds
#
# Revision: 1
# Processed by: cddbd v1.5.2PL0 Copyright (c) Steve Scherf et al.
# Submitted via: audiograbber 1.83.01
#
DISCID=6e0b4309
DTITLE=Gerardo Scaglione - Contrabajissimo
DYEAR=2007
DGENRE=Tango
TTITLE0=Elegia (Bottesini)
TTITLE1=Meditazione - Aria di Bach (Bottesini)
TTITLE2=Vals Miniature (Koussevitzky)
TTITLE3=Chanson Triste  (Koussevitzky)
TTITLE4=Reverie (Bottesini)
TTITLE5=Psy (Berio)
TTITLE6=Contrabajeando (Piazzolla/Troilo)
TTITLE7=Kicho (Piazzolla)
TTITLE8=Contrabajissimo (Piazzolla)
EXTD=
EXTT0=
EXTT1=
EXTT2=
EXTT3=
EXTT4=
EXTT5=
EXTT6=
EXTT7=
EXTT8=
PLAYORDER=
